<svg height="85" width="152" xmlns="http://www.w3.org/2000/svg"><linearGradient id="a" x1=".002%" x2="100.001%" y1="50.001%" y2="50.001%"><stop offset="0" stop-color="#fe330a"/><stop offset="1" stop-color="#f0047f"/></linearGradient><g fill="none" fill-rule="evenodd"><path d="M152.211 74.498c0 2.993-47.58 10.16-78.293 10.16C43.205 84.658.21 76.746.21 74.498V.015h152z" fill="url(#a)"/><g fill="#fff"><path d="M51.442 28.835c-1.197-1.182-2.661-1.876-4.336-2.027-3.063-.272-5.452.91-7.152 3.465-.196.297-.352.624-.533.95-.06-.054-.12-.105-.176-.16-.7-.7-1.388-1.403-2.097-2.092-1.716-1.68-3.768-2.41-6.157-2.168-3.123.317-5.799 2.73-6.438 5.804-.085.422-.13.85-.196 1.278v.623c.015.086.036.171.04.257.121 1.594.664 3.028 1.726 4.22.885.99 1.856 1.906 2.796 2.851.06.06.146.1.231.156-.105.11-.16.171-.216.227-.664.663-1.333 1.317-1.991 1.991-1.897 1.952-2.631 4.28-2.043 6.931 1.228 5.502 7.766 7.685 12.051 4.094.93-.78 1.746-1.7 2.616-2.555.06-.06.12-.116.196-.186.05.1.085.176.12.246 2.249 4.618 8.264 5.704 11.936 2.118a422.78 422.78 0 0 0 7.655-7.66 7.378 7.378 0 0 0 .005-10.32c-2.64-2.707-5.342-5.378-8.037-8.043zM41.92 43.43c-.08.13-.166.256-.277.362-2.565 2.57-5.115 5.165-7.715 7.7-1.213 1.182-3.204.815-4.05-.649a2.643 2.643 0 0 1 .303-3.048c.135-.156.286-.301.432-.447 1.695-1.695 3.39-3.395 5.09-5.09.065-.066.15-.12.282-.227-.116-.085-.207-.13-.272-.2a3011.457 3011.457 0 0 1-5.668-5.67c-.94-.945-1.122-2.237-.473-3.319a2.649 2.649 0 0 1 3.983-.643c.076.06.146.125.212.196 2.57 2.57 5.14 5.135 7.71 7.71.936.936 1.107 2.253.443 3.325zm14.545-.196c-.14.271-.337.528-.558.749a3375.863 3375.863 0 0 1-7.348 7.353c-.76.76-1.675 1.036-2.711.724-.996-.301-1.615-.995-1.826-2.016-.171-.825.035-1.575.578-2.224.086-.105.186-.2.282-.296 1.75-1.756 3.506-3.506 5.261-5.256.07-.066.146-.126.267-.226-.111-.091-.187-.141-.247-.202a3027.475 3027.475 0 0 1-5.683-5.683c-.93-.93-1.107-2.228-.463-3.305A2.65 2.65 0 0 1 48 32.199c.086.07.166.15.247.231 2.555 2.55 5.105 5.105 7.66 7.66.885.89 1.111 2.087.558 3.144z" fill-rule="nonzero"/><path d="M76.026 32.386c0-.569-.327-.936-.895-.94-1.333-.01-2.666-.016-3.994 0-.558.004-.885.371-.885.925 0 4.914-.005 10.195.005 15.108 0 .503.05 1.016.146 1.514.252 1.303.966 2.249 2.213 2.742.74.291 1.524.392 2.314.397 2.61.01 5.215.005 7.826 0 .623 0 .98-.367.98-.996V48.38c0-.745-.331-1.082-1.066-1.082h-5.462c-.92 0-1.126-.19-1.126-1.111-.005-2.218 0-4.436 0-6.654m15.833-8.103c-1.278-.005-2.55-.005-3.828 0-.634.005-.976.352-.976.986v18.73c0 .634.342.98.976.986 1.278.005 2.55.005 3.828 0 .633-.005.975-.352.975-.986V32.421c0-.634-.342-.986-.975-.99zm17.98.005c-3.948-.005-7.891-.005-11.84-.005-.105 0-.21-.005-.311.005-.513.045-.835.392-.84.905-.005.9-.005 1.796 0 2.696 0 .483.297.815.78.88.135.02.271.026.407.026 2.751 0 5.502 0 8.259.005.15 0 .306 0 .452.035.252.06.327.256.196.478-.06.1-.145.19-.22.281-3.275 3.773-6.554 7.55-9.834 11.322-.301.347-.533.744-.573 1.197-.055.669-.045 1.343-.05 2.017a.785.785 0 0 0 .603.8c.161.045.332.055.498.055 5.2.005 10.396 0 15.597 0 .09 0 .176 0 .266-.005.529-.045.845-.387.845-.916v-2.454c0-.402-.21-.694-.593-.805a1.823 1.823 0 0 0-.498-.055c-2.922-.005-5.84 0-8.762-.005-.16 0-.321-.01-.472-.055-.207-.06-.267-.232-.161-.418.065-.11.15-.206.236-.302l8.807-9.591c.266-.287.533-.573.82-.885.085.1.146.176.206.246 1.418 1.73 2.816 3.48 4.27 5.186.478.558.664 1.136.659 1.85-.025 2.485-.01 4.975-.01 7.464 0 .65.337.986.996.986h3.344c.674 0 1.001-.327 1.001-1.006v-7.534c0-.256-.005-.518.04-.77.036-.196.106-.412.227-.563 2.65-3.249 5.452-6.68 8.113-9.928.155-.191.321-.382.462-.584.201-.291.076-.533-.276-.563-.106-.01-.207-.01-.312-.01h-2.384c-.94 0-1.876.005-2.817.01a.934.934 0 0 0-.78.377c-1.382 1.72-2.927 3.606-4.325 5.317-.427.518-.84.518-1.267-.005-1.398-1.706-2.802-3.41-4.185-5.126l-.015-.015c-.005-.005-.005-.01-.015-.02a3.823 3.823 0 0 0-.327-.317c-.01-.01-.02-.015-.03-.025s-.02-.015-.02-.015v.005a.894.894 0 0 0-.569-.181"/></g></g></svg>